<?xml version="1.0" encoding="utf-8"?>
<!-- Generator: Adobe Illustrator 21.1.0, SVG Export Plug-In . SVG Version: 6.00 Build 0)  -->
<svg version="1.1" id="图层_1" xmlns="http://www.w3.org/2000/svg" xmlns:xlink="http://www.w3.org/1999/xlink" x="0px" y="0px"
	 viewBox="0 0 11 11" style="enable-background:new 0 0 11 11;" xml:space="preserve">
<style type="text/css">
	.st0{fill:#231815;}
</style>
<g>
	<g>
		<g>
			<path class="st0" d="M10.5,11c-0.1,0-0.3,0-0.4-0.1l-10-10C0,0.7,0,0.4,0.1,0.2s0.5-0.2,0.7,0l10,10c0.2,0.2,0.2,0.5,0,0.7
				C10.8,11,10.6,11,10.5,11z"/>
		</g>
		<g>
			<path class="st0" d="M0.5,11c-0.1,0-0.3,0-0.4-0.1c-0.2-0.2-0.2-0.5,0-0.7l10-10c0.2-0.2,0.5-0.2,0.7,0s0.2,0.5,0,0.7l-10,10
				C0.8,11,0.6,11,0.5,11z"/>
		</g>
	</g>
</g>
</svg>
