<?xml version="1.0" encoding="utf-8"?>
<!-- Generator: Adobe Illustrator 21.1.0, SVG Export Plug-In . SVG Version: 6.00 Build 0)  -->
<svg version="1.1" id="图层_1" xmlns="http://www.w3.org/2000/svg" xmlns:xlink="http://www.w3.org/1999/xlink" x="0px" y="0px"
	 viewBox="0 0 13 8.2" style="enable-background:new 0 0 13 8.2;" xml:space="preserve">
<style type="text/css">
	.st0{fill:#231815;}
</style>
<g>
	<g>
		<g>
			<path class="st0" d="M4.6,8.2c-0.7,0-1.3-0.3-1.8-0.7L0.1,4.8C0,4.6,0,4.3,0.1,4.1s0.5-0.2,0.7,0l2.7,2.7
				c0.3,0.3,0.7,0.4,1.1,0.4l0,0c0.4,0,0.8-0.2,1.1-0.4l6.4-6.6c0.2-0.2,0.5-0.2,0.7,0s0.2,0.5,0,0.7L6.5,7.5C6,7.9,5.3,8.2,4.6,8.2
				L4.6,8.2z"/>
		</g>
	</g>
</g>
</svg>
