<?xml version="1.0" encoding="utf-8"?>
<!-- Generator: Adobe Illustrator 21.1.0, SVG Export Plug-In . SVG Version: 6.00 Build 0)  -->
<svg version="1.1" id="图层_1" xmlns="http://www.w3.org/2000/svg" xmlns:xlink="http://www.w3.org/1999/xlink" x="0px" y="0px"
	 viewBox="0 0 16.8 17.1" style="enable-background:new 0 0 16.8 17.1;" xml:space="preserve">
<style type="text/css">
	.st0{fill:#FF3D3D;}
</style>
<g>
	<g>
		<g>
			<rect x="11.7" y="5.1" transform="matrix(0.866 -0.5 0.5 0.866 -0.9596 7.6167)" class="st0" width="4" height="1"/>
		</g>
		<g>
			<rect x="9.5" y="2.9" transform="matrix(0.4999 -0.8661 0.8661 0.4999 2.8026 11.7075)" class="st0" width="4" height="1"/>
		</g>
		<g>
			<rect x="13.2" y="9.6" transform="matrix(0.5001 -0.866 0.866 0.5001 -3.187 17.6925)" class="st0" width="1" height="4"/>
		</g>
		<g>
			<rect x="11" y="11.8" transform="matrix(0.866 -0.5 0.5 0.866 -5.3532 7.6156)" class="st0" width="1" height="4"/>
		</g>
		<g>
			<rect x="2.8" y="3.6" transform="matrix(0.5 -0.866 0.866 0.5 -3.1739 5.6884)" class="st0" width="1" height="4"/>
		</g>
		<g>
			<rect x="5" y="1.4" transform="matrix(0.866 -0.5 0.5 0.866 -0.9585 3.2253)" class="st0" width="1" height="4"/>
		</g>
		<g>
			<rect x="3.5" y="13.3" transform="matrix(0.4998 -0.8662 0.8662 0.4998 -9.1639 11.6869)" class="st0" width="4" height="1"/>
		</g>
		<g>
			<rect x="1.3" y="11.1" transform="matrix(0.866 -0.5 0.5 0.866 -5.3527 3.2286)" class="st0" width="4" height="1"/>
		</g>
		<g>
			<path class="st0" d="M8.5,17.1c-3,0-5.9-1.6-7.4-4.3c-1.1-2-1.4-4.3-0.9-6.5c0.6-2.2,2-4,4-5.2C5.5,0.4,7,0,8.4,0
				c3,0,5.9,1.6,7.4,4.3c2.3,4.1,1,9.3-3.1,11.6C11.5,16.7,10,17.1,8.5,17.1z M8.5,1.1c-1.3,0-2.6,0.3-3.7,1c-1.7,1-3,2.6-3.5,4.6
				s-0.3,4,0.8,5.7c1.3,2.3,3.8,3.8,6.5,3.8c1.3,0,2.6-0.3,3.7-1C15.9,13.1,17.1,8.5,15,5C13.7,2.5,11.2,1.1,8.5,1.1z"/>
		</g>
		<g>
			<path class="st0" d="M8.5,13.1c-1.6,0-3.1-0.9-3.9-2.3C3.4,8.7,4.1,5.9,6.2,4.7c0.7-0.4,1.5-0.6,2.2-0.6c1.6,0,3.1,0.9,3.9,2.3
				c1.2,2.1,0.5,4.9-1.6,6.1C10.1,12.9,9.3,13.1,8.5,13.1z M8.5,5.1c-0.6,0-1.2,0.2-1.7,0.5c-1.7,1-2.2,3.1-1.3,4.8
				c0.6,1.1,1.8,1.8,3,1.8c0.6,0,1.2-0.2,1.7-0.5c1.7-1,2.2-3.1,1.3-4.8C10.9,5.8,9.7,5.1,8.5,5.1z"/>
		</g>
	</g>
</g>
</svg>
