<?xml version="1.0" encoding="utf-8"?>
<!-- Generator: Adobe Illustrator 21.1.0, SVG Export Plug-In . SVG Version: 6.00 Build 0)  -->
<svg version="1.1" id="图层_1" xmlns="http://www.w3.org/2000/svg" xmlns:xlink="http://www.w3.org/1999/xlink" x="0px" y="0px"
	 viewBox="0 0 13.3 16.1" style="enable-background:new 0 0 13.3 16.1;" xml:space="preserve">
<g>
	<g>
		<g>
			<path d="M8.8,1.1h2c1.4,0,2.5,1.1,2.5,2.5v10c0,1.4-1.1,2.5-2.5,2.5h-8c-1.4,0-2.5-1.1-2.5-2.5v-10c0-1.4,1.1-2.5,2.5-2.5h2v1h-2
				c-0.8,0-1.5,0.7-1.5,1.5v10c0,0.8,0.7,1.5,1.5,1.5h8c0.8,0,1.5-0.7,1.5-1.5v-10c0-0.8-0.7-1.5-1.5-1.5h-2V1.1z"/>
		</g>
		<g>
			<path d="M8,4.1H5.3c-0.6,0-1.2-0.5-1.2-1.2V1.2C4.1,0.6,4.6,0,5.3,0H8c0.6,0,1.2,0.5,1.2,1.2v1.7C9.3,3.6,8.8,4.1,8,4.1z
				 M5.5,1.1c-0.1,0-0.2,0.1-0.2,0.2V3c0,0.1,0.1,0.2,0.2,0.2h2.7c0.1,0,0.2-0.1,0.2-0.2V1.3c0-0.1-0.1-0.2-0.2-0.2H5.5z"/>
		</g>
		<g>
			<path d="M9.8,13.1h-6c-0.3,0-0.5-0.2-0.5-0.5s0.2-0.5,0.5-0.5h6c0.3,0,0.5,0.2,0.5,0.5S10,13.1,9.8,13.1z"/>
		</g>
		<g>
			<path d="M9.8,10.1h-6c-0.3,0-0.5-0.2-0.5-0.5s0.2-0.5,0.5-0.5h6c0.3,0,0.5,0.2,0.5,0.5S10,10.1,9.8,10.1z"/>
		</g>
		<g>
			<path d="M9.8,7.1h-6c-0.3,0-0.5-0.2-0.5-0.5s0.2-0.5,0.5-0.5h6c0.3,0,0.5,0.2,0.5,0.5S10,7.1,9.8,7.1z"/>
		</g>
	</g>
</g>
</svg>
