<?xml version="1.0" encoding="utf-8"?>
<!-- Generator: Adobe Illustrator 21.1.0, SVG Export Plug-In . SVG Version: 6.00 Build 0)  -->
<svg version="1.1" id="图层_1" xmlns="http://www.w3.org/2000/svg" xmlns:xlink="http://www.w3.org/1999/xlink" x="0px" y="0px"
	 viewBox="0 0 14.9 14.4" style="enable-background:new 0 0 14.9 14.4;" xml:space="preserve">
<g>
	<g>
		<path d="M11.1,14.4c-0.2,0-0.5-0.1-0.7-0.2l-2.8-1.4c-0.1-0.1-0.3-0.1-0.4,0l-2.8,1.4c-0.6,0.3-1.4,0.1-1.8-0.4
			c-0.3-0.3-0.4-0.8-0.3-1.2l0.4-3.1c0-0.2,0-0.3-0.1-0.4L0.4,6.9C0,6.5-0.1,5.9,0,5.4c0.2-0.5,0.6-0.9,1.2-1l3.1-0.5
			c0.2,0,0.3-0.1,0.4-0.3l1.4-2.8C6.4,0.3,6.9,0,7.4,0s1.1,0.3,1.3,0.8l1.4,2.8c0.1,0.1,0.2,0.2,0.4,0.3l3.1,0.5
			c0.6,0.1,1,0.5,1.2,1s0,1.1-0.4,1.5l-2.2,2.2c-0.1,0.1-0.2,0.3-0.1,0.4l0.5,3.1c0.1,0.4-0.1,0.9-0.3,1.2
			C11.9,14.2,11.5,14.4,11.1,14.4z M7.4,11.8c0.2,0,0.5,0.1,0.7,0.2l2.8,1.4c0.2,0.1,0.5,0,0.6-0.1s0.1-0.2,0.1-0.4l-0.5-3.1
			c-0.1-0.5,0.1-0.9,0.4-1.3l2.2-2.2c0.1-0.1,0.2-0.3,0.1-0.5c0-0.1-0.1-0.3-0.4-0.3l-3-0.7C9.9,4.7,9.5,4.4,9.3,4L7.9,1.2
			C7.7,0.9,7.2,0.9,7,1.2L5.6,4C5.4,4.4,5,4.7,4.5,4.8L1.4,5.4C1.1,5.4,1,5.7,1,5.7C0.9,5.9,1,6.1,1.1,6.2l2.2,2.2
			c0.3,0.3,0.5,0.8,0.4,1.3l-0.4,3.1c0,0.2,0,0.3,0.1,0.4c0.1,0.2,0.4,0.2,0.6,0.1l2.8-1.4C6.9,11.8,7.2,11.8,7.4,11.8z"/>
	</g>
</g>
</svg>
