<?xml version="1.0" encoding="utf-8"?>
<!-- Generator: Adobe Illustrator 21.1.0, SVG Export Plug-In . SVG Version: 6.00 Build 0)  -->
<svg version="1.1" id="图层_1" xmlns="http://www.w3.org/2000/svg" xmlns:xlink="http://www.w3.org/1999/xlink" x="0px" y="0px"
	 viewBox="0 0 15.4 15.7" style="enable-background:new 0 0 15.4 15.7;" xml:space="preserve">
<g>
	<g>
		<g>
			<g>
				<path d="M14.3,9.3l-1,4.4c-0.3,1.2-1.3,2-2.5,2H4.5c-1.2,0-2.3-0.8-2.5-2L1,9.3l1-0.2l1,4.4c0.2,0.7,0.8,1.2,1.5,1.2h6.3
					c0.7,0,1.4-0.5,1.5-1.2l1-4.4L14.3,9.3z"/>
			</g>
			<g>
				<g>
					<path d="M4.3,15.3l-0.6-4.2c0-0.3,0.2-0.5,0.4-0.6c0.3,0,0.5,0.2,0.6,0.4l0.6,4.2L4.3,15.3z"/>
				</g>
				<g>
					<path d="M8.2,15.2L8.4,11c0-0.3,0.2-0.5,0.5-0.5s0.5,0.2,0.5,0.5l-0.2,4.2H8.2z"/>
				</g>
				<g>
					<path d="M10.1,15.2l0.6-4.3c0-0.3,0.3-0.5,0.6-0.4c0.3,0,0.5,0.3,0.4,0.6l-0.6,4.2L10.1,15.2z"/>
				</g>
				<g>
					<path d="M6.2,15.3L6,11.1c0-0.3,0.2-0.5,0.5-0.5S7,10.8,7,11.1l0.2,4.2L6.2,15.3z"/>
				</g>
			</g>
		</g>
		<g>
			<path d="M7.7,10C1.2,10,0,10,0,6.9c0-1.5,1.3-2.2,2.8-3C4.2,3.1,6,2.2,7.3,0.2c0.2-0.3,0.7-0.3,0.8,0c1.3,2,3.1,2.9,4.5,3.7
				c1.5,0.8,2.8,1.5,2.8,3C15.4,10,14.2,10,7.7,10z M7.7,1.4C6.3,3.2,4.6,4.1,3.2,4.8C1.7,5.6,0.9,6,0.9,6.9c0,2,0,2.1,6.7,2.1
				s6.7-0.1,6.7-2.1c0-0.9-0.8-1.3-2.3-2.1C10.8,4.1,9.1,3.2,7.7,1.4z"/>
		</g>
	</g>
	<g>
		<path d="M15,7.9c-0.4,0.4-1.1,0.6-1.9,0.5C8.8,8.1,7.7,3.8,7.4,1.7C6.5,2.8,5,4.7,5.1,6.2c0,0.5,0.2,1,0.6,1.3
			C7.3,9,10.5,9,10.5,9C10.8,9,11,9.2,11,9.5S10.8,10,10.5,10l0,0c-0.1,0-3.7,0-5.5-1.8C4.4,7.7,4.1,7,4.1,6.2c0-2.7,3.2-5.9,3.4-6
			C7.6,0.1,7.9,0,8,0.1c0.2,0.1,0.3,0.3,0.3,0.5c0,0.3,0.2,6.5,4.9,6.8c0.5,0,1,0,1.2-0.2C14.5,7.1,14.5,7,14.5,7
			c0-0.3,0.2-0.5,0.5-0.5L15,7.9z"/>
	</g>
</g>
</svg>
