<?xml version="1.0" encoding="utf-8"?>
<!-- Generator: Adobe Illustrator 21.1.0, SVG Export Plug-In . SVG Version: 6.00 Build 0)  -->
<svg version="1.1" id="EXE_LOGO_MOULINEX" xmlns="http://www.w3.org/2000/svg" xmlns:xlink="http://www.w3.org/1999/xlink" x="0px"
	 y="0px" viewBox="0 0 542.7 174.2" style="enable-background:new 0 0 542.7 174.2;" xml:space="preserve">
<style type="text/css">
	.st0{clip-path:url(#SVGID_2_);}
	.st1{fill:#ED1B2F;}
</style>
<g>
	<g id="HdPointRouge300.psd_2_">
		<g>
			<g>
				<defs>
					<rect id="SVGID_1_" x="315.6" y="33.6" width="21.1" height="21.1"/>
				</defs>
				<clipPath id="SVGID_2_">
					<use xlink:href="#SVGID_1_"  style="overflow:visible;"/>
				</clipPath>
				<g class="st0">
					
						<image style="overflow:visible;enable-background:new    ;" width="619" height="619" xlink:href="4B144362.png"  transform="matrix(3.414007e-02 0 0 3.414007e-02 315.5462 33.5864)">
					</image>
				</g>
			</g>
		</g>
	</g>
	<g>
		<g>
			<path class="st1" d="M536.8,46.3c3.3,0,5.9,2.7,5.9,6c0,3.4-2.6,6.1-6,6.1c-3.3,0-6-2.7-6-6.1C530.8,49,533.5,46.3,536.8,46.3
				L536.8,46.3z M536.7,47.2c-2.7,0-4.8,2.3-4.8,5.1c0,2.9,2.2,5.1,4.9,5.1s4.8-2.3,4.8-5.1S539.5,47.2,536.7,47.2L536.7,47.2z
				 M535.6,55.9h-1.1v-6.8c0.6-0.1,1.1-0.2,1.9-0.2c1,0,1.7,0.2,2.1,0.5c0.4,0.3,0.6,0.8,0.6,1.4c0,0.9-0.6,1.4-1.3,1.6v0.1
				c0.6,0.1,1,0.6,1.1,1.6c0.2,1,0.3,1.4,0.4,1.7h-1.1c-0.2-0.2-0.3-0.8-0.5-1.7c-0.2-0.9-0.6-1.2-1.4-1.2h-0.8L535.6,55.9
				L535.6,55.9z M535.6,52.1h0.8c0.9,0,1.6-0.3,1.6-1.2c0-0.6-0.4-1.2-1.6-1.2c-0.3,0-0.6,0-0.8,0.1V52.1z"/>
		</g>
		<path class="st1" d="M0,46C-0.4,0.1,26.8-13.8,34.4,15.1c0.6,2.2,14.2,54.2,14.2,54.2S60.4,40,63,33.6C67.3,23.1,74.7,24,79,37
			c6.4,19.3,11.1,33.2,11.1,33.2s5.8-10,7.1-12.1c9.9-15.7,20.7-10.4,24.5,1.1c5.9,18.2,11.5,32.7,22.5,22.5
			c1.1-27.7,36.2-27.6,41.2-10.6c4.3-2.9,9.2-6.8,11.9-8.5c6.3-3.9,11.5-0.3,13.4,3.7c1.7,3.6,3.5,9.3,5.1,13.6
			c1.6,4.2,7,4.8,11.4-1.2l-3.3-13.8l18.6-5.6c0,0,4.5,15,8.5,22.5c2.1,4,2.8,4.5,6.7,3.4c3.3-0.9,9-4,9-4
			c-6.9-27.9,7-54.1,19.8-64.7c9.9-8.2,19.8-5.3,22.5,6.7c1.7,7.8,3.8,25-22.5,53.1c2.1,4.7,6.3,8.3,10.8,7.6
			c6.5-1,14.4-7.5,21.3-18.1c6.9-10.8,10.3-4.9,11.7-0.5c0.9,2.8,1.8,7.7,3.1,11.3c2.1,5.9,7.2,5,9.9,1.9c4.5-5.3,9.3-11,11.4-13.3
			c5.1-5.4,11.8-4.4,15.1,0c2.7,3.6,4.3,8.2,6.6,12.4c3.8-3.3,8.3-9.7,10.3-11.7c8.8-8.8,14.9-4,17.9,0.5
			c6.4,9.5,6.8,23.3,22.6,22.3c-7.4-18.9,12.1-30.4,25.1-29.9c13.4,0.6,19,7.1,13.5,16.8c-1.9,3.3-5.6,7.8-13.2,10.7
			c9.1,4.1,21.4,2.8,33.9-2.7c-2.1-3.8-9.9-17.7-11.1-21.1l22.2-0.6l6.7,9.7l16.9-9.3l2.9,4.3L508,78.4c3.7,9.3,16.5,12,28.6,8.5
			l1.8,4.7c-6.5,2.6-18.8,6.7-20.1,7.1c-3.9,1.2-15.6,4.5-28-9.7c-14.2,6.5-42.7,17.4-57.6,4.6c-30.8,13.5-38.2-2.3-43.6-10.7
			c-1.4-2.2-2.5-0.8-3.7,0.6c-1.3,1.5-7.3,9.4-10.6,11.9c-2.1,1.5-7.5,5.8-12.7-1.1c-1.5-2-3.7-6.5-6-10.2c-1.7-2.8-2.8-1.6-6.2,1.5
			c-1.2,1.1-8,7.1-10.7,9.4c-2.4,2.1-11.2,7.5-18.7-1.3c-2.6-3-4.7-5.7-7.4-8.6c-8.6,7.1-27.5,22.2-43.3,4.4
			c-19.8,12.7-33,10.8-38.2-3.2c-17.3,18.3-28.1,12.6-33.1,2.4c-1.3-2.7-4.3-8.6-5.4-11c-0.2-0.5-0.5-0.8-1.1-0.7
			c-1.6,0.2-4.4,0.6-5.4,1c1.2,26.8-31.5,27.3-40.4,11.9c-19.6,13.2-36.8,12.8-44.6-17c-15.3,31.6-22.4,38.8-38.4-8.9
			c-22.4,47.6-26.8,42.4-35.4,11.3c-1.4-5.1-11.6-42.1-12.8-46c-1.6-5.5-4.9-6.8-6.2-2.6c-2.1,7.1-3.4,19.7-3.4,19.7L0,46z
			 M171.5,66.8c-4.7,0-8.5,3.9-8.5,8.7c0,4.8,3.8,8.7,8.5,8.7s8.5-3.9,8.5-8.7S176.2,66.8,171.5,66.8z M297.5,28.8
			c0-5.3-1.1-6.7-2.6-7c-2.1-0.4-4.2,1.3-5.8,3.9c-7.5,12.4-11.9,26.1-7.6,42.4C293.4,58.5,297.4,45.3,297.5,28.8z M455.7,73.1
			c3-7-5.6-10.8-10.6-4.4c-5.4,7-4,11.4-0.2,14.7C453.3,77.7,454.6,75.6,455.7,73.1z"/>
	</g>
</g>
<g>
	<path d="M202.1,163.8h-4.5v-25.2h16.1v3.9H202v21.3H202.1z"/>
	<path d="M229.5,138c6.3,0,13.1,4.5,13.1,13c0,5.1-2.6,13.4-13.1,13.4c-10.4,0-13-8.3-13-13.4C216.4,142.5,223.2,138,229.5,138z
		 M229.5,160.5c6.8,0,7.9-5.9,7.9-9.5c0-2.4-0.9-9.1-7.9-9.1c-6.6,0-7.9,6.1-7.9,9.1C221.6,153,221.8,160.5,229.5,160.5z"/>
	<path d="M253.1,142.5h-7.6v-3.9h19.6v3.9h-7.6v21.3H253L253.1,142.5L253.1,142.5z"/>
	<path d="M285.6,138.6h5l-7.5,22c-2.2,6.5-5.1,13.6-12.4,13.6c-0.4,0-0.8,0-1.1-0.1v-4.2c4.4-0.3,6.8-2.5,7.8-7.2l-10.3-24.2h5.2
		l7.5,17.9L285.6,138.6z"/>
	<path d="M295.2,138.6h9.6c1.8,0,8.4,0.1,8.4,6.2c0,2.3-1.5,5-4.2,5.6c3.2,0.3,5.9,2.4,5.9,6.1c0,6.5-5.4,7.3-9.2,7.3h-10.4
		L295.2,138.6L295.2,138.6z M303.4,148.7c1.9,0,4.5-0.2,4.5-3.5c0-2.8-2.9-2.7-4.5-2.7h-3.8v6.2H303.4z M304.2,159.9
		c2.9,0,5.5-0.3,5.5-3.9c0-2.5-1.7-3.5-5.5-3.5h-4.5v7.3h4.5V159.9z"/>
	<path d="M320.1,141.7c3.7-3,7.3-3.7,9.9-3.7c9.4,0,9.5,8.2,9.5,9.8v9.3c0,1.9,0.4,3.1,2.6,3.2v4.1c-3.7,0-5.6-1.7-6.5-3.7
		c-2.8,2-5.3,3.7-9.1,3.7c-5.7,0-8.2-3.5-8.2-7.3c0-7.9,7.6-8.9,16.7-9.2c0.3-5.1-2.9-5.9-5.5-5.9c-1.9,0-4.2,0.9-7.3,3L320.1,141.7
		z M323.5,157c0,1.7,1.2,3.4,4.2,3.4c2.2,0,5.5-1.3,7.4-4.4v-4.5C325.5,151.3,323.5,154.8,323.5,157z"/>
	<path d="M351.9,142.5h-7.6v-3.9h19.6v3.9h-7.5v21.3h-4.5V142.5z"/>
	<path d="M385.1,142.6v-4h4.5v25.2h-4.5v-15.6l-11.8,11.9v3.7h-4.5v-25.2h4.5v15.9L385.1,142.6z"/>
	<path class="st1" d="M416.3,157.6c-2.2,5.9-5.5,6.8-7.7,6.8c-0.5,0-1,0-1.6-0.1v-4c4.3-0.3,5.3-4.3,5.9-7.1
		c0.9-4.5,1.2-10.5,1.3-14.6h16v25.2h-4.5v-21.3h-7.2C418.5,147.2,417.8,153.4,416.3,157.6z"/>
	<path class="st1" d="M458.9,159.4c-2.5,3.2-6.4,5-10.5,5c-7.6,0-12.6-5.8-12.6-13c0-7.7,4.9-13.4,11.8-13.4
		c8.4,0,11.4,7.6,11.2,14.1h-17.9c-0.1,3.2,1.4,8.4,7.5,8.4c3.2,0,5-1.1,7.7-3.8L458.9,159.4z M453.8,148.2
		c-0.2-2.2-1.3-6.3-6.3-6.3c-4.8,0-6,3.6-6.3,6.3H453.8z"/>
	<path class="st1" d="M468.9,163.8h-4.5v-25.2h16.1v3.9h-11.7v21.3H468.9z"/>
	<path class="st1" d="M489.6,138.6v9.7c4.8,0.1,5.4-1.6,7.3-4.8c2.4-4,3.3-5.5,7.9-5.6v3.8c-3.1,0.7-3.1,1.8-4.4,4.1
		c-2.1,3.8-3.6,4.2-4.5,4.3v0.2c2.9,0.9,3.9,3,4.8,4.6c2.5,5.1,3.4,5.2,5,5.2c0.2,0,0.4,0,0.6,0v3.9c-0.5,0.1-1.2,0.2-1.6,0.2
		c-4.3,0-5.8-2.8-7.5-5.9c-2.2-4.1-3.2-6.3-5.6-6.3h-2v11.6h-4.5v-25.2h4.5V138.6z"/>
	<path class="st1" d="M522.9,138c6.3,0,13.1,4.5,13.1,13c0,5.1-2.6,13.4-13.1,13.4c-10.4,0-13-8.3-13-13.4
		C509.9,142.5,516.6,138,522.9,138z M522.9,160.5c6.8,0,7.9-5.9,7.9-9.5c0-2.4-0.9-9.1-7.9-9.1c-6.6,0-7.9,6.1-7.9,9.1
		C515,153,515.3,160.5,522.9,160.5z"/>
</g>
</svg>
